Coordinates
version=1
nRows=8
nColumns=34
inDegrees=yes

Units are S.I. units (second, meters, Newtons, ...)
If the header above contains a line with 'inDegrees', this indicates whether rotational values are in degrees (yes) or radians (no).

endheader
time	pelvis_tilt	pelvis_list	pelvis_rotation	pelvis_tx	pelvis_ty	pelvis_tz	hip_flexion_r	hip_adduction_r	hip_rotation_r	knee_angle_r	ankle_angle_r	subtalar_angle_r	mtp_angle_r	hip_flexion_l	hip_adduction_l	hip_rotation_l	knee_angle_l	ankle_angle_l	subtalar_angle_l	mtp_angle_l	lumbar_extension	lumbar_bending	lumbar_rotation	arm_flex_r	arm_add_r	arm_rot_r	elbow_flex_r	pro_sup_r	arm_flex_l	arm_add_l	arm_rot_l	elbow_flex_l	pro_sup_l
      0.00000000	     -0.74841398	     -1.40635988	     -6.94982845	      0.43250844	      0.93876146	     -0.04476129	     -1.93644934	     -0.78897855	     -5.65916264	      6.79530425	      2.40567605	    -19.63080997	      0.00000000	     -2.03013162	     -6.61744271	     -3.89332874	      9.44211331	      3.51027165	    -19.63624914	      0.00000000	     -0.96920346	     -0.09883582	      1.81096847	     35.66484169	      6.89009484	     42.64980059	    129.00308104	    118.86628708	     48.10946429	     16.67622147	     65.63616765	    121.37358180	     96.25137546
      0.01666670	     -2.64393042	     -1.02497440	     -6.86414492	      0.43758387	      0.93809662	     -0.04728806	     -0.25849472	     -0.72889140	     -6.46099111	      6.41813831	      5.02967069	    -17.06575273	      0.00000000	      0.16051503	     -6.28396110	     -3.77925755	      9.04981690	      3.58879335	    -19.32005074	      0.00000000	      2.57329988	      0.17533387	      0.67972001	     36.26636542	      8.05740970	     41.75698348	    128.06940248	    117.05069410	     50.16634704	     15.77464720	     64.69011821	    123.83307681	     96.99451934
      0.03333330	     -3.33849762	     -0.46217257	     -6.83098069	      0.44136484	      0.93818559	     -0.04660481	      0.08950538	     -1.11663049	     -7.35487604	      5.66663496	      4.61672064	    -17.32964288	      0.00000000	      1.18299701	     -5.75616225	     -3.60781697	      9.40072352	      3.66574399	    -18.72709592	      0.00000000	      4.04047586	     -0.59683971	      0.76048213	     35.39894191	      8.52146116	     41.87194073	    128.83001680	    116.51690434	     50.77867192	     15.16236811	     64.66693414	    125.37975362	     96.94242834
      0.05000000	     -3.51550230	     -0.08237622	     -6.69480864	      0.44343409	      0.93654243	     -0.04655766	     -0.18851463	     -1.54803853	     -7.61977583	      4.90863427	      4.22017307	    -17.17174144	      0.00000000	      1.01876316	     -5.41244342	     -3.38649254	      8.93709140	      3.39736244	    -18.46730734	      0.00000000	      5.07291390	     -1.11753867	      0.97901324	     34.63263572	      8.83534959	     42.59782790	    129.02456651	    116.38398729	     51.33300096	     15.06789773	     64.38921684	    125.22849898	     96.81276420
      0.06666670	     -3.63659756	      0.01069869	     -6.54866883	      0.44605640	      0.94052614	     -0.04589009	     -0.41696760	     -1.64527212	     -7.83672725	      4.51902447	      3.92732039	    -17.14222533	      0.00000000	      0.84911183	     -5.37199335	     -2.89289979	      8.66505353	      3.06935077	    -18.10627082	      0.00000000	      5.71954979	     -1.13823601	      1.43785540	     34.11712993	      9.17525749	     43.41134636	    128.99420718	    116.31045638	     51.02496316	     15.07043494	     64.63784318	    124.91758760	     96.68467569
      0.08333330	     -4.20266712	      0.17559926	     -6.25433753	      0.44591372	      0.93878724	     -0.04740453	      0.07546868	     -1.85669813	     -8.00571995	      4.45005766	      3.46584514	    -17.32836694	      0.00000000	      1.59472662	     -5.25416318	     -2.22061727	      9.04750542	      2.88246258	    -18.25102487	      0.00000000	      6.59336272	     -1.23578553	      1.42773670	     34.10274169	      8.38621472	     45.80546777	    128.47759682	    115.81217571	     50.80673697	     15.48812114	     65.77364737	    123.91721435	     95.69864123
      0.10000000	     -4.26016710	      0.34978617	     -6.01869229	      0.44991568	      0.94678708	     -0.04444961	     -0.27465326	     -2.02115626	     -7.74294270	      4.01774599	      3.08902600	    -17.04535490	      0.00000000	      1.49235330	     -5.18466796	     -1.81530875	      8.97080094	      2.27851412	    -17.96864688	      0.00000000	      7.02541640	     -1.44784595	      1.51740522	     33.49714526	      8.38353082	     46.39630588	    128.06029331	    115.59915591	     50.25610907	     15.62982279	     66.23139406	    123.75676909	     95.24743325
      0.11666670	     -4.17639924	      0.35217395	     -6.00787372	      0.44944065	      0.94499140	     -0.04470465	     -0.37442363	     -2.10517206	     -7.51286623	      4.18303020	      2.94239436	    -16.87959036	      0.00000000	      1.40791395	     -5.24711532	     -1.60967861	      9.22850260	      2.09341339	    -17.82830028	      0.00000000	      7.22190575	     -1.46377839	      1.50750509	     33.53212868	      8.42663657	     46.43233504	    128.03599636	    115.57385724	     50.24257771	     15.66954322	     66.29161980	    123.73726801	     95.19505282
